<svg version="1.2" xmlns="http://www.w3.org/2000/svg" viewBox="0 0 1542 1565" width="1542" height="1565">
	<title>Baker_Hughes_logo-svg</title>
	<style>
		.s0 { fill: #1ca18a } 
		.s1 { fill: #61c799 } 
	</style>
	<g id="layer1">
		<g id="g16691">
			<path id="path12565" class="s0" d="m1416.3 830.4c50.7 18.5 93.6 58.6 113.5 113.6 35.9 98.7-15.3 208.1-113.5 243.7l-981.7 357.7c-167.9 60.9-353.2-25.4-414.6-193.4-60.8-168 25.9-354 193.7-415.4-110.7 40.6-167.4 162.4-127.3 273.2 40.1 110.3 162.3 167.1 272.6 126.9l899.6-327.7-1044.9-380.3c-110.7-40.6-167.4-162.5-127.3-273.2 40.1-110.3 162.3-167.1 272.6-126.9-53.1-19.4-111.2 7.8-130.5 60.9-19.4 52.6 7.8 111.2 60.8 130.6z"/>
			<path id="path12567" class="s1" d="m1258.6 556.3l-899.6-327.7c-110.3-40.2-232.5 16.6-272.6 126.9-40.1 110.7 16.6 232.6 127.3 272.8-167.8-61-254.5-247-193.7-415 61.4-168 247.2-254.8 415-193.4l981.3 357.7c98.2 35.6 149.4 145 113.5 243.7-20.3 55-62.8 95.1-113.5 113.6l-1127 410.3c-53 19.4-80.2 78-60.8 130.6 19.3 53.1 77.9 80.3 130.5 60.9-110.3 40.2-232.5-16.6-272.6-126.9-40.1-110.8 16.6-232.6 127.3-272.8z"/>
		</g>
	</g>
</svg>