<?xml version="1.0" encoding="utf-8"?>
<!-- Generator: Adobe Illustrator 19.2.1, SVG Export Plug-In . SVG Version: 6.00 Build 0)  -->
<svg version="1.1" id="layer" xmlns="http://www.w3.org/2000/svg" xmlns:xlink="http://www.w3.org/1999/xlink" x="0px" y="0px"
	 viewBox="0 0 652 652" style="enable-background:new 0 0 652 652;" xml:space="preserve">
<style type="text/css">
	.st0{fill:#009889;}
	.st1{fill:#62BDA0;}
	.st2{fill:#003423;}
</style>
<g>
	<path class="st0" d="M543.6,299.8c-3.3-1.2-4.9-4.8-3.8-8.1c1.2-3.3,4.8-5,8.1-3.8c-6.8-2.5-14.4,1-16.8,7.8
		c-2.5,6.8,1,14.4,7.8,16.8l64.5,23.5l-55.5,20.2c-6.8,2.5-14.4-1-16.8-7.8c-2.5-6.8,1-14.4,7.8-16.8c-10.4,3.8-15.7,15.2-11.9,25.6
		c3.8,10.4,15.2,15.7,25.6,11.9l60.6-22c6.1-2.2,9.2-8.9,7-15c-1.2-3.4-3.9-5.9-7-7L543.6,299.8z"/>
	<path class="st1" d="M603.4,308.2L547.9,288c-6.8-2.5-14.4,1-16.8,7.9c-2.5,6.8,1,14.3,7.8,16.8c-10.4-3.8-15.7-15.2-11.9-25.6
		c3.8-10.4,15.2-15.7,25.6-11.9l60.6,22c6.1,2.2,9.2,8.9,7,15c-1.2,3.4-3.9,5.9-7,7l-69.6,25.3c-3.3,1.2-4.9,4.8-3.8,8.1
		c1.2,3.3,4.8,4.9,8.1,3.8c-6.8,2.5-14.4-1-16.8-7.8c-2.5-6.8,1-14.4,7.8-16.8L603.4,308.2"/>
	<path class="st2" d="M107.9,345.8H97.4v-4.9H97c-2.5,3.3-6.4,6.2-12.7,6.2c-7.6,0-17.8-6.1-17.8-20.9c0-12.5,8.6-20.5,18.6-20.5
		c6.1,0,9.8,3,11.9,6.1h0.3v-5h10.6V345.8z M87.7,337.6c5.2,0,9.8-4.6,9.8-11.2c0-6.8-4.2-11.3-9.7-11.3c-6.8,0-10.1,5.6-10.1,11.2
		C77.7,332,80.9,337.6,87.7,337.6 M129.5,329.7l-2.5,2.4v13.6h-11v-58.6h11V320l12.4-13.2h13.4l-15.6,16l18,23h-13.3L129.5,329.7z
		 M224,316.2c-1.4-0.2-3-0.5-5.2-0.5c-6.5,0-9.8,4.1-9.8,11.1v19h-11v-39h10.8v6h0.2c2.1-3.8,6.2-7.2,11.4-7.2
		c1.5,0,2.5,0.1,3.6,0.3V316.2z M275.9,322.2h-21.4v23.6h-11.7v-55.5h11.7v21.8h21.4v-21.8h11.7v55.5h-11.7V322.2z M331.4,345.8
		h-10.9v-4.9h-0.2c-3.2,4.6-7.2,6.2-11.4,6.2c-6.4,0-14.2-3.9-14.2-17.2v-23.1h11v21.7c0,5.7,2.7,8.8,6.9,8.8c4.8,0,7.8-3.3,7.8-9.9
		v-20.7h11V345.8z M378.4,344.6c0,14.5-6.5,22.1-20.9,22.1c-9.5,0-16.2-4.5-18.7-12l10.1-3.7c0.8,3.8,3.6,6.7,9.3,6.7
		c6.6,0,10-4.2,10-11.7v-5h-0.3c-2.6,3.1-6.4,5.6-12.5,5.6c-10.1,0-18.4-7.9-18.4-20.5c0-11.7,8.1-20.6,18.9-20.6
		c6.2,0,9.9,3.2,11.8,6h0.4v-4.7h10.3V344.6z M358.1,337.1c5.5,0,9.9-4.5,9.9-10.9c0-6.7-4.3-11.1-9.9-11.1c-6.6,0-10,5.5-10,11
		C348.2,331.4,351.3,337.1,358.1,337.1 M386.1,287.2h11v24.5h0.3c2.7-4.3,7.1-6.1,11.5-6.1c8.7,0,14.8,5.8,14.8,17.8v22.4h-11V324
		c0-5.8-2.8-8.8-7.3-8.8c-4.8,0-8.3,3.3-8.3,9.9v20.6h-11V287.2z M468.7,326c0,0.9,0,1.9-0.2,2.9h-29c0,5.4,4.6,10,10.1,10
		c3.6,0,6.1-1.5,7.8-4.1l9.1,3.3c-3,5.1-8.5,9-17,9c-11.7,0-20.8-8.5-20.8-21.2c0-11.2,7.3-20.5,20-20.5
		C461.7,305.5,468.7,315.1,468.7,326 M439.6,321.4h18.2c-0.5-4.6-4-8.3-9.1-8.3C443.4,313.1,440,317.1,439.6,321.4 M491.4,317.3
		c-0.2-2.8-2-4.4-4.5-4.4c-2.6,0-4,1.7-4,3.4c0,2.2,1.2,3.6,7.8,5.9c8.2,2.7,11.2,6.8,11.2,12.5c0,7.2-5.5,12.5-15.1,12.5
		c-9.9,0-14.7-5.2-15.1-12.8h9.9c0.2,3.1,1.9,5.3,5.5,5.3c2.8,0,4.5-1.9,4.5-4.2c0-2.7-1.9-4.3-7.7-6.3c-7.3-2.4-11.2-6-11.2-12.1
		c0-7,5.7-11.6,14.1-11.6c8.6,0,13.4,5,14.2,11.8H491.4z M192.2,326c0,0.9,0,1.9-0.2,2.9h-29c0,5.4,4.6,10,10.1,10
		c3.6,0,6.1-1.5,7.8-4.1l9.1,3.3c-3,5.1-8.5,9-17,9c-11.7,0-20.8-8.5-20.8-21.2c0-11.2,7.3-20.5,20-20.5
		C185.2,305.5,192.2,315.1,192.2,326 M163.1,321.4h18.2c-0.5-4.6-4-8.3-9.1-8.3C166.9,313.1,163.5,317.1,163.1,321.4 M20.9,290.2
		h19.2c11.5,0,19.2,4.6,19.2,14c0,6.2-4.5,10.3-9.9,11.7v0.2c8.5,1.1,12.9,7.2,12.9,13.8c0,10.3-8.3,16-19.4,16h-22V290.2z
		 M39.5,299h-7.6v13.4h8c5.5,0,7.9-2.7,7.9-7C47.8,301.2,44.7,299,39.5,299 M41.2,320.9h-9.3v16h9.8c5.7,0,8.8-3,8.8-8.1
		C50.5,324.2,47.1,320.9,41.2,320.9"/>
</g>
</svg>
